<?xml version="1.0" encoding="utf-8"?>
<!-- Generator: Adobe Illustrator 27.5.0, SVG Export Plug-In . SVG Version: 6.00 Build 0)  -->
<svg version="1.1" id="Layer_1" xmlns="http://www.w3.org/2000/svg" xmlns:xlink="http://www.w3.org/1999/xlink" x="0px" y="0px"
	 viewBox="0 0 3248 2000" style="enable-background:new 0 0 3248 2000;" xml:space="preserve">
<g>
	
		<rect x="0" y="0" transform="matrix(-1 -1.224647e-16 1.224647e-16 -1 3248 2000)" style="fill:#FFFFFF;" width="3248" height="2000"/>
	<g>
		<g>
			<path style="fill:#EBF3FA;" d="M2915.64,1787.012c0,0,350.121-375.918,59.211-782.904
				c-258.115-361.105-559.052-336.42-779.843-189.882c-94.038,62.413-365.161,7.692-595.921-359.746
				C1284.396-46.603,131.338,210.077,334.494,1031.582c92.496,374.025-234.972,383.293-36.67,756.22L2915.64,1787.012z"/>
			<path style="fill:#2E3552;" d="M149.426,1790.794h2949.147c1.858,0,3.379-1.521,3.379-3.379v-1.223
				c0-1.858-1.521-3.379-3.379-3.379H149.427c-1.859,0-3.379,1.521-3.379,3.379v1.223
				C146.048,1789.273,147.568,1790.794,149.426,1790.794z"/>
		</g>
		<g>
			<g>
				<path style="fill:#82B378;" d="M1362.192,1529.03c0,0-41.129-47.984-2.535-78.462c0,0,28.191-17.067,51.176-15.68
					c0,0-32.571,54.616-22.034,60.049c10.537,5.432,31.906-63.476,31.906-63.476s64.151-6.22,84.789,3.701
					c0,0-54.841,44.879-43.292,47.55c11.55,2.672,70.786-41.377,70.786-41.377s59.708,10.161,56.524,46.583
					c-3.184,36.423-23.757,47.671-32.8,46.702c-9.042-0.968-61.936-21.16-63.089-13.751c-1.152,7.409,30.689,31.623,52.983,32.755
					c0,0-42.094,46.424-70.071,33.026c-27.977-13.398-30.365-34.636-47.804-42.601c-17.439-7.965-32.326-7.946-25.127,0.178
					c7.201,8.124,38.763,16.019,48.735,33.661c9.973,17.641,18.921,29.539-10.023,25.183c-28.946-4.356-75.995-25.534-78.059-49.788
					C1362.192,1529.03,1362.192,1529.03,1362.192,1529.03z"/>
				<g>
					<path style="fill:#82B378;" d="M1560.174,1488.901c0,0-162.168-6.25-197.982,40.129c0,0-7.921,23.721-32.292,45.322
						l-3.799,10.353c0,0,28.101-29.63,38.157-31.423C1364.258,1553.282,1348.532,1495.824,1560.174,1488.901z"/>
					<path style="fill:#82B378;" d="M1329.9,1574.352c0,0-34.808,25.742-37.227,71.738l6.318,0.565c0,0,11.117-47.558,31.21-66.158
						C1350.296,1561.899,1329.9,1574.352,1329.9,1574.352z"/>
				</g>
			</g>
			<g>
				<path style="fill:#A8D29F;" d="M1218.388,1468.686c0,0,65.427-36.64,34.895-86.365c0,0-24.426-30.531-50.597-38.383
					c0,0,13.958,74.151,0,75.895c-13.958,1.744-9.596-83.747-9.596-83.747s-68.917-33.149-95.96-30.531
					c0,0,42.745,72.405,28.788,70.66c-13.958-1.744-61.938-75.022-61.938-75.022s-70.661-13.086-82.002,28.787
					c-11.341,41.873,6.979,62.811,17.447,65.427c10.468,2.618,77.64,1.744,75.895,10.468c-1.745,8.724-47.108,22.682-72.406,14.83
					c0,0,27.916,68.917,64.554,65.427c36.639-3.49,47.98-26.171,70.661-27.915c22.681-1.745,39.257,4.361,27.916,10.468
					c-11.342,6.106-49.725,2.001-68.045,17.575c-18.32,15.574-33.149,25.17,0.873,32.149c34.022,6.98,95.087,2.618,107.301-23.553
					C1218.388,1468.686,1218.388,1468.686,1218.388,1468.686z"/>
				<g>
					<path style="fill:#82B378;" d="M1014.256,1343.066c0,0,183.195,59.321,204.132,125.62c0,0-0.872,29.659,17.447,63.682v13.086
						c0,0-19.191-44.491-29.659-50.597C1206.176,1494.857,1247.175,1437.28,1014.256,1343.066z"/>
					<path style="fill:#82B378;" d="M1235.835,1532.368c0,0,28.252,42.902,12.146,95.125l-7.269-1.952
						c0,0,7.056-57.521-7.726-86.451C1218.206,1510.16,1235.835,1532.368,1235.835,1532.368z"/>
				</g>
			</g>
			<g>
				<path style="fill:#A8D29F;" d="M1322.477,1418.156c0,0-86.244-48.297-45.997-113.844c0,0,32.198-40.247,66.696-50.597
					c0,0-18.399,97.745,0,100.045c18.399,2.3,12.649-110.393,12.649-110.393s90.844-43.698,126.492-40.248
					c0,0-56.346,95.444-37.948,93.145c18.399-2.299,81.645-98.894,81.645-98.894s93.145-17.248,108.094,37.948
					c14.95,55.197-9.199,82.795-22.998,86.245c-13.799,3.45-102.344,2.3-100.045,13.8c2.3,11.499,62.097,29.898,95.444,19.549
					c0,0-36.797,90.844-85.095,86.244c-48.297-4.599-63.246-34.498-93.145-36.797c-29.899-2.299-51.747,5.749-36.797,13.8
					c14.949,8.049,65.546,2.637,89.694,23.167c24.149,20.53,43.698,33.179-1.149,42.379c-44.847,9.199-125.343,3.45-141.442-31.048
					S1322.477,1418.156,1322.477,1418.156z"/>
				<g>
					<path style="fill:#82B378;" d="M1591.562,1252.565c0,0-241.486,78.195-269.085,165.59c0,0,1.15,39.097-22.998,83.944v17.25
						c0,0,25.298-58.647,39.097-66.696C1338.576,1452.653,1284.529,1376.758,1591.562,1252.565z"/>
					<path style="fill:#82B378;" d="M1299.479,1502.1c0,0-37.241,56.553-16.011,125.393l9.582-2.573
						c0,0-9.301-75.823,10.184-113.958C1322.718,1472.827,1299.479,1502.1,1299.479,1502.1z"/>
				</g>
			</g>
			<path style="fill:#F99746;" d="M1319.571,1776.776c93.303,0,168.94-75.636,168.94-168.94h-337.88
				C1150.631,1701.139,1226.268,1776.776,1319.571,1776.776z"/>
			<path style="fill:#FFAC6E;" d="M1269.679,1775.483c6.871,0.859,13.877,1.293,20.99,1.293c93.301,0,168.931-75.64,168.931-168.941
				h-41.97C1417.631,1694.033,1353.078,1765.147,1269.679,1775.483z"/>
			<path style="fill:#ED7D2B;" d="M1490.844,1785.373h-342.546l0,0c0-11.512,9.332-20.843,20.843-20.843h300.86
				C1481.512,1764.529,1490.844,1773.861,1490.844,1785.373L1490.844,1785.373z"/>
			<rect x="1145.077" y="1607.835" style="fill:#ED7D2B;" width="347.276" height="5.182"/>
		</g>
		<g>
			
				<rect x="1160.383" y="109.885" transform="matrix(1.214504e-04 1 -1 1.214504e-04 2180.49 -895.2078)" style="fill:#8EB2DD;" width="755.041" height="1065.777"/>
			
				<rect x="1019.015" y="279.253" transform="matrix(-1 1.214134e-04 -1.214134e-04 -1 3075.8845 1285.3606)" style="fill:#D7E6FA;" width="1037.776" height="727.041"/>
			<g>
				<path style="fill:#8EB2DD;" d="M1650.266,866.246l-364.012,0.044c-7.207,0.001-13.05-5.841-13.051-13.048l0,0
					c-0.001-7.207,5.841-13.05,13.048-13.051l364.011-0.044c7.207-0.001,13.05,5.841,13.051,13.048l0,0
					C1663.314,860.402,1657.473,866.245,1650.266,866.246z"/>
				<path style="fill:#8EB2DD;" d="M1650.275,942.956L1286.264,943c-7.207,0.001-13.05-5.841-13.051-13.048l0,0
					c-0.001-7.207,5.841-13.05,13.048-13.051l364.011-0.044c7.207-0.001,13.05,5.841,13.051,13.048l0,0
					C1663.324,937.112,1657.482,942.955,1650.275,942.956z"/>
				<rect x="1095.487" y="788.221" style="fill:#8EB2DD;" width="842.542" height="6.745"/>
				<polygon style="fill:#8EB2DD;" points="1928.601,805.314 1928.598,777.773 1966.368,791.539 				"/>
				
					<rect x="914.315" y="609.388" transform="matrix(-1.212212e-04 -1 1 -1.212212e-04 525.5085 1751.2755)" style="fill:#8EB2DD;" width="447.941" height="7.055"/>
				<polygon style="fill:#8EB2DD;" points="1123.857,401.724 1152.664,401.72 1138.256,367.435 				"/>
				<path style="fill:#2A4E96;" d="M1223.824,880.071l-2.176,0c-13.073,0.002-23.672-10.595-23.674-23.668l0,0
					c-0.002-13.073,10.595-23.672,23.668-23.674l2.176,0c13.073-0.002,23.672,10.595,23.674,23.668l0,0
					C1247.494,869.47,1236.897,880.069,1223.824,880.071z"/>
				<path style="fill:#F99746;" d="M1223.833,948.049l-2.176,0c-13.073,0.002-23.672-10.595-23.674-23.668v0
					c-0.002-13.073,10.595-23.672,23.668-23.674l2.176,0c13.073-0.002,23.672,10.595,23.674,23.668v0
					C1247.502,937.449,1236.906,948.048,1223.833,948.049z"/>
				<polygon style="fill:#699FF0;" points="1893.18,409.386 1844.792,413.425 1851.153,425.97 1699.271,497.48 1557.386,735.963 
					1389.936,592.414 1254.857,657.916 1254.474,658.1 1168.358,738.314 1172.29,742.176 1257.79,662.535 1389.045,598.886 
					1558.828,744.433 1703.314,501.584 1853.612,430.82 1859.892,443.204 				"/>
				<path style="fill:#2A4E96;" d="M1255.845,679.62l-1.609,0c-9.67,0.001-17.511-7.837-17.512-17.508l0,0
					c-0.001-9.67,7.837-17.511,17.508-17.512l1.609,0c9.67-0.001,17.511,7.837,17.512,17.508v0
					C1273.354,671.779,1265.516,679.619,1255.845,679.62z"/>
				<path style="fill:#2A4E96;" d="M1701.297,520.628l-1.609,0c-9.67,0.001-17.511-7.837-17.512-17.508v0
					c-0.001-9.67,7.837-17.511,17.508-17.512l1.609,0c9.67-0.001,17.511,7.837,17.512,17.508l0,0
					C1718.805,512.787,1710.967,520.627,1701.297,520.628z"/>
				<path style="fill:#2A4E96;" d="M1389.494,617.627l-1.609,0c-9.67,0.001-17.511-7.837-17.512-17.508l0,0
					c-0.001-9.67,7.837-17.511,17.508-17.512l1.609,0c9.67-0.001,17.511,7.837,17.512,17.508l0,0
					C1407.003,609.786,1399.165,617.626,1389.494,617.627z"/>
				<path style="fill:#F99746;" d="M1558.112,752.756l-1.609,0c-9.67,0.001-17.511-7.837-17.512-17.508v0
					c-0.001-9.67,7.837-17.511,17.508-17.512l1.609,0c9.67-0.001,17.511,7.837,17.512,17.508l0,0
					C1575.62,744.914,1567.782,752.755,1558.112,752.756z"/>
			</g>
		</g>
		<g>
			<path style="fill:#FFB27D;" d="M618.827,612.154c0,0,37.735,44.769,85.79,26.041c0,0,10.339-25.003,10.484-43.434
				c0.017-2.269,0.045-4.467,0.081-6.557c0.256-20.756,0.956-32.401,0.956-32.401s-0.013-0.005-0.048-0.01
				c-2.186-0.912-73.462-30.174-73.402-27.744C643.91,584.182,618.827,612.154,618.827,612.154z"/>
			<path style="fill:#ED975D;" d="M649.844,541.434c6.873,12.739,30.458,37.665,65.339,46.77
				c0.256-20.756,0.956-32.401,0.956-32.401s-0.013-0.005-0.048-0.01C714.117,555.263,647.798,537.679,649.844,541.434z"/>
			<path style="fill:#FFB27D;" d="M731.065,553.646c0,0-80.156,18.844-91.122-31.253c-10.967-50.097-28.699-81.405,22.015-95.555
				c50.713-14.15,64.875,2.782,72.603,18.613C742.289,461.282,751.634,547.452,731.065,553.646z"/>
			<path style="fill:#A9453D;" d="M642.685,536.042c-1.095,0.702-18.342,6-51.005-59.069c-5.128-10.215-8.621-32.312,3.331-51.836
				c11.951-19.524,54.331-34.876,89.542-41.556c35.21-6.68,43.663,13.133,51.955,33.044c8.705,20.903,33.842,38.112,33.842,38.112
				c-30.363,16.961-66.933-7.298-79.603-3.309c-12.67,3.989-17.144,23.957-18.095,30.357c-0.951,6.401-2.412,11.719-18.343,6.003
				c-15.932-5.717-7.205,22.576-4.652,27.987C649.659,515.776,651.823,530.187,642.685,536.042z"/>
			<g>
				<path style="fill:#2C3A64;" d="M436.2,1785.373h-48.537c-10.174,0-21.48-10.189-24.31-28.839
					c-2.831-18.665-23.745-28.839-28.273-44.107c-4.528-15.268,18.665-36.762,18.665-36.762l3.877-4.981l4.033-5.193l38.447,9.042
					c0,0,0.948,9.156,1.542,20.816c0.41,8.419,0.636,18.154,0.156,26.687c-1.132,20.363,5.702,42.282,23.786,46.243
					C443.686,1772.241,436.2,1785.373,436.2,1785.373z"/>
				<path style="fill:#2C3A64;" d="M774.083,1785.373H645.429c-1.231-0.241-2.165-0.51-2.731-0.793
					c-8.59-4.302-5.901-37.187-4.868-47.347c0.197-1.882,0.34-2.985,0.34-2.985s45.238-36.183,51.464-8.477
					c0.198,0.864,0.425,1.713,0.665,2.548v0.015c7.853,25.924,42.96,37.696,63.239,40.979
					C769.032,1771.831,773.051,1780.858,774.083,1785.373z"/>
				<path style="fill:#2B478B;" d="M748.153,1043.457c0,0-6.871,85.721-14.945,188.763
					c-10.976,139.973-24.175,311.906-25.481,344.478c-2.256,56.559-11.315,147.03-11.315,147.03s-21.477,21.494-64.464,12.435
					c0,0-38.306-129.15-49.248-265.797c-0.169-2.239-0.339-4.496-0.509-6.752c-10.178-139.108-26.006-432.032-26.006-432.032
					L748.153,1043.457z"/>
				<path style="fill:#233862;" d="M748.153,1043.457c0,0-6.871,85.721-14.945,188.763l-150.508,238.146
					c-0.169-2.239-0.339-4.496-0.509-6.752c-10.178-139.108-26.006-432.032-26.006-432.032L748.153,1043.457z"/>
				<path style="fill:#2B478B;" d="M716.777,1053.637c0,0-123.841,310.447-205.269,456.341
					c-81.43,145.894-106.875,186.608-106.875,186.608s-46.652-18.66-50.893-31.384c0,0,31.138-281.654,85.669-350.313
					c30.814-38.797,67.011-155.225,68.706-195.939c1.697-40.714,11.027-121.296,11.027-121.296L716.777,1053.637z"/>
			</g>
			<g>
				<path style="fill:#FFB27D;" d="M434.357,997.232l-1.31,19.966c0,0,13.168,35.47-23.727,53.665c0,0-15.792,6.37-16.433-5.925
					c-0.64-12.295,1.38-7.67,0.098-24.984c-1.285-17.314,5.522-33.674,16.974-39.185l9.396-10.842L434.357,997.232z"/>
				<path style="fill:#ED7D2B;" d="M419.945,1011.769c13.708,4.401,15.904,3.405,15.904,3.405s66.717-121.465,73.474-132.584
					c6.757-11.119,141.651-136.209,141.651-136.209l-34.667-129.268c0,0-153.425,198.676-169.992,227.185
					c-27.379,47.11-43.42,156.522-43.42,156.522S409.179,1008.312,419.945,1011.769z"/>
			</g>
			<path style="fill:#F99746;" d="M523.123,1050.884c33.904,20.029,65.902,34.888,103.057,42.726
				c44.035,9.588,97.824,5.493,115.857,7.761c1.931,0.22,3.705-0.299,5.273-1.347c1.322-0.83,8.408-55.15,15.17-123.889
				c0.182-1.581,0.363-3.252,0.492-4.91c0.091-1.114,0.156-2.228,0.181-3.304l0.117-0.971c0.738-7.138,1.45-14.42,2.111-21.778
				c1.658-18.344,3.097-37.167,4.431-55.953c0.129-1.787,0.259-3.588,0.375-5.389c2.087-30.302,3.628-60.15,4.108-86.695
				c0.012-0.635,0.025-1.269,0.025-1.905c0.363-22.231-0.013-42.103-1.425-57.883c-0.286-3.329-0.622-6.451-1.023-9.392
				c-5.26-39.85-24.55-67.885-42.66-88.936l-17.71-20.095c-16.997,1.49-31.713,2.101-48.31-8.549
				c-17.981-11.53-29.595-22.387-33.236-20.353c-27.828,16.284-57.967,56.329-73.072,110.689
				c-8.123,29.266-14.173,62.21-17.956,96.891c-1.438,13.318-2.552,26.856-3.317,40.575c-3.939,73.61-15.468,136.507-22.154,173.067
				c-1.917,10.519-3.433,18.875-4.262,24.666C508.367,1041.168,518.628,1048.216,523.123,1050.884z"/>
			<path style="fill:#ED7D2B;" d="M650.976,706.825c0,0,15.143,167.418,111.996,264.399c0.091-1.114,0.156-2.228,0.181-3.304
				l0.117-0.971c0.738-7.138,1.45-14.42,2.111-21.778c1.658-18.344,3.097-37.167,4.431-55.953c0.129-1.787,0.259-3.588,0.375-5.389
				c2.087-30.302,3.628-60.15,4.108-86.695c0.012-0.635,0.025-1.269,0.025-1.905c-0.195-15.87-0.66-30.34-1.425-43.049
				C741.882,727.424,701.63,710.129,650.976,706.825z"/>
			<g>
				<path style="fill:#2A4E96;" d="M973.861,1041.425l180.198-529.651c0.831-2.412,1.935-4.718-0.462-5.59l-2.187-0.796
					c-2.457-0.894-3.178,0.691-4.072,3.147l-192.085,522.038c-1.815,4.987,0.539,10.529,5.388,12.684l4.45,1.98
					C968.566,1046.783,972.621,1045.021,973.861,1041.425z"/>
			</g>
			<path style="fill:#FFB27D;" d="M1022.26,813.821c0.089-7.753,20.54-25.675,21.897-23.514c0.976,1.555-1.14,9.697-2.281,13.125
				c8.495-5.685,10.433-25.778,24.777-34.746c3.975-2.485,18.131,36.355,4.709,50.447c-13.421,14.092-19.863,12.523-42.207,25.563
				l-16.19,1.089l-7.996-25.164C1004.969,820.621,1013.597,817.461,1022.26,813.821z"/>
			<path style="fill:#F99746;" d="M1030.63,834.171c1.061-15.272-19.077-24.108-19.077-24.108s-153.433,15.995-166.632,11.842
				c-13.197-4.152-111.806-145.655-111.806-145.655s-43.258-48.786-78.679-38.013c-30.779,9.361-42.812,33.371-46.908,56.244
				c-4.881,27.256,7.682,54.682,31.286,69.16c52.984,32.497,145.658,122.066,170.639,129.39
				c55.601,16.301,214.405-36.978,214.405-36.978S1029.796,846.167,1030.63,834.171z"/>
		</g>
		<g>
			<g>
				<g>
					<path style="fill:#B7D3F3;" d="M2741.835,1306.919c2.787-68.538,8.794-128.157,15.985-169.736
						c11.463-66.278,21.781-104.41,21.9-104.815c1.51-5.829,23.322-29.413,71.817-28.685c48.495,0.728,43.896,31.656,43.896,31.656
						l0,0c0.005,1.045-0.134,2.02-0.347,2.749c-0.468,1.594-44.983,163.004-43.056,371.406c0.027,2.926,0.355,7.985,0.148,11.352
						c-0.001,0.015-112.382,2.901-112.409,0C2735.85,1402.634,2737.762,1352.164,2741.835,1306.919z"/>
					<path style="fill:#D2E3FC;" d="M2727.705,1408.469c0.034,2.903,1.567,5.228,3.436,5.228h0.045
						c1.869-0.043,3.358-2.369,3.38-5.228h96.311c0.033,2.903,1.567,5.228,3.436,5.228h0.044c1.903-0.043,3.414-2.445,3.391-5.382
						c-0.56-59.657,2.843-115.363,7.99-164.529c12.803-122.611,36.472-204.559,36.808-205.695c0.213-0.731,0.347-1.703,0.347-2.75
						c0,0,4.6-30.926-43.892-31.657c-48.502-0.731-70.314,22.858-71.825,28.688c-0.089,0.306-5.931,21.897-13.698,60.715
						c-2.574,12.86-5.349,27.608-8.203,44.092c-7.185,41.58-13.195,101.205-15.981,169.736
						C2725.221,1352.163,2723.788,1390.26,2727.705,1408.469z"/>
					<path style="fill:#C5DCF8;" d="M2844.865,1413.7h-377.591c0,0,8.794-35.584,227.47-30.285
						C2849.496,1387.166,2844.865,1413.7,2844.865,1413.7z"/>
					<g>
						<path style="fill:#B7D3F3;" d="M2875.599,1785.373c-43.781-221.631-32.523-357.632-32.467-359.345
							c0.11-3.413-6.179-6.512-9.562-6.622c-3.425-0.06-18.536-1.007-20.284,1.913c-2.292,3.825-11.108,171.391,54.141,364.054
							H2875.599z"/>
					</g>
					<g>
						<path style="fill:#B7D3F3;" d="M2523.048,1785.373c43.78-221.631,32.523-357.632,32.467-359.345
							c-0.11-3.413,6.179-6.512,9.562-6.622c3.426-0.06,18.536-1.007,20.285,1.913c2.291,3.825,11.107,171.391-54.142,364.054
							H2523.048z"/>
					</g>
					<g>
						<path style="fill:#B7D3F3;" d="M2453.18,1785.373c43.78-221.631,32.522-357.632,32.467-359.345
							c-0.11-3.413,6.179-6.512,9.562-6.622c3.426-0.06,18.537-1.007,20.285,1.913c2.291,3.825,11.107,171.391-54.142,364.054
							H2453.18z"/>
					</g>
					<g>
						<path style="fill:#B7D3F3;" d="M2805.261,1785.373c-43.78-221.631-32.523-357.632-32.467-359.345
							c0.11-3.413-6.179-6.512-9.562-6.622c-3.426-0.06-18.537-1.007-20.285,1.913c-2.291,3.825-11.108,171.391,54.142,364.054
							H2805.261z"/>
					</g>
					<path style="fill:#B7D3F3;" d="M2467.052,1425.057h377.589c4.254,0,7.735-3.481,7.735-7.735v-5.084
						c0-4.254-3.481-7.735-7.735-7.735h-377.59c-4.254,0-7.735,3.481-7.735,7.735v5.084
						C2459.316,1421.576,2462.797,1425.057,2467.052,1425.057z"/>
					<g>
						<path style="fill:#FFB27D;" d="M2480.315,1084.057l-125.513-27.186l-7.392,18.017c0,0,138.491,82.408,151.467,78.373
							C2511.852,1149.226,2480.315,1084.057,2480.315,1084.057z"/>
						<path style="fill:#FFB27D;" d="M2594.427,1651.712c3.144,3.603,3.544,7.629,1.988,11.928c-0.001,0.018-0.011,0.043-0.03,0.059
							c-2.877,7.951-12.383,16.829-23.424,25.695c-1.411,1.14-2.666,2.175-3.759,3.134c-0.287,0.252-0.574,0.503-0.844,0.757
							c-0.222,0.195-0.437,0.399-0.65,0.586c-10.296,9.491-6.422,11.666-24.918,30.925c-21.092,21.945-35.614,22.339-39.744,20.34
							c-3.495-1.704,3.606-13.342,11.474-26.424c0.382-0.63,0.756-1.27,1.146-1.907c1.048-1.739,2.089-3.505,3.129-5.253
							c9.221-15.744,6.853-23.132,4.667-46.563c-1.776-19.04-29.622-106.372-29.622-106.372l40.419-6.962
							c0,0,12.172,69.542,25.583,80.251c7.172,5.708,15.199,5.78,22.092,10.012c0.488,0.295,0.966,0.596,1.434,0.906
							C2587.285,1645.42,2591.275,1648.099,2594.427,1651.712z"/>
						<path style="fill:#1C468A;" d="M2594.427,1651.712c3.144,3.603,3.544,7.629,1.988,11.928c-0.001,0.018-0.011,0.043-0.03,0.059
							c-3.523,7.943-12.789,16.776-23.462,25.615c-1.394,1.158-2.625,2.221-3.72,3.214c-0.287,0.252-0.574,0.503-0.844,0.757
							c-0.222,0.195-0.437,0.399-0.65,0.586c-10.296,9.491-6.422,11.666-24.918,30.925c-21.092,21.945-35.614,22.339-39.744,20.34
							c-3.495-1.704,3.606-13.342,11.474-26.424c4.106-1.505,23.178-9.252,37.597-27.703c12.7-16.206,21.17-37.029,29.818-49.091
							c0.488,0.295,0.966,0.596,1.434,0.906C2587.285,1645.42,2591.275,1648.099,2594.427,1651.712z"/>
						<path style="fill:#FFB27D;" d="M2268.512,1626.467c-2.496,12.477-20.28,10.395-40.149,5.54
							c-19.869-4.855-15.146,0.917-43.425-2.214c-28.278-3.13-36.844-13.674-37.707-17.879c-0.772-3.731,13.2-5.047,28.188-6.773
							c1.885-0.211,3.778-0.444,5.671-0.678c16.921-2.122,29.313-13.041,44.683-22.008c14.559-8.495,36.285-43.101,36.285-43.101
							l38.781,3.072c0,0-20.35,30.91-28.222,44.348c-4.63,7.904-4.384,18.357-3.807,26.428
							C2269.11,1617.589,2269.396,1622.073,2268.512,1626.467z"/>
						<path style="fill:#1C468A;" d="M2228.362,1632.007c-19.869-4.855-15.146,0.917-43.425-2.214
							c-28.278-3.13-36.844-13.674-37.707-17.879c-0.772-3.731,13.2-5.047,28.188-6.773l0.14,0.288c0,0,16.959,12.024,40.497,12.588
							c19.185,0.466,39.505-5.03,52.754-4.816c0.3,4.387,0.586,8.872-0.298,13.265
							C2266.015,1638.944,2248.232,1636.862,2228.362,1632.007z"/>
						<path style="fill:#FFB27D;" d="M2354.802,1056.871c0,0-9.24-22.637-19.404-23.562c-10.164-0.923-42.503-6.006-44.813-1.386
							c-2.31,4.62,0,21.252,6.929,27.257c6.93,6.006,49.895,15.708,49.895,15.708L2354.802,1056.871z"/>
						<path style="fill:#163560;" d="M2417.13,1378.492l83.581,224.93c0,0,12.839,1.243,25.15-2.304
							c11.327-3.264,24.308-11.838,24.308-11.838s-20.733-215.971-58.744-260.894
							C2453.413,1283.465,2417.13,1378.492,2417.13,1378.492z"/>
						<path style="fill:#1C468A;" d="M2747.71,1287.496c0,0-240.161-81.206-293.722-63.927
							c-53.561,17.278-214.377,337.232-214.377,337.232s3.626,4.828,13.535,8.543c9.215,3.456,31.521,3.235,31.521,3.235
							s145.133-124.4,162.411-160.683c17.278-36.284,24.189-70.839,41.467-67.384c17.278,3.456,222.883,84.661,269.533,36.284
							c46.65-48.377,34.45-111.233,34.45-111.233L2747.71,1287.496z"/>
						<path style="fill:#2C3A64;" d="M2600.948,909.719c-3.833-7.919-8.123-21.983-10.222-47.054
							c0.324,2.489,4.645,34.11,16.804,52.01c49.946,32.791,145.679,142.284,143.785,163.033c0,0,33.72-57.193,34.301-57.535
							c0,0,62.203-79.097-11.519-124.406c-37.468-23.027-37.278-52.581-35.713-78.254c1.578-25.676-10.219-136.192-85.277-107.27
							c0,0-12.043-5.352-17.439-4.55c0,0,4.406,0.843,6.647,3.156c-8.701-0.514-21.142,0.129-31.523,6.03
							C2583.276,730.514,2558.654,870.794,2600.948,909.719z"/>
						<path style="fill:#FFB27D;" d="M2610.487,916.306c-0.251,0.113,24.115,12.765,42.443,7.751
							c17.24-4.7,28.504-27.053,28.266-27.103c-7.301-1.45-9.406-11.483-9.251-54.595l-3.301,0.65l-55.495,10.989
							c0,0,1.263,17.465,1.301,33.917C2614.487,901.729,2613.649,914.831,2610.487,916.306z"/>
						<path style="fill:#ED975D;" d="M2613.149,853.998c0,0,1.263,17.465,1.301,33.917c31.054-0.875,47.468-29.204,54.194-44.906
							L2613.149,853.998z"/>
						<path style="fill:#2C3A64;" d="M2674.375,836.968c0,0,16.274-25.714,20.18-47.701c2.789-15.698-5.207-73.884-63.677-65.504
							c0,0-16.982,1.674-32.945,12.455c-12.695,8.574-31.017,27.085-10.531,77.859l5.321,17.152L2674.375,836.968z"/>
						<path style="fill:#FFB27D;" d="M2602.778,869.577c0,0,73.473,1.212,73.523-44.555c0.051-45.767,9.568-76.434-37.341-79.143
							c-46.909-2.709-56.042,14.745-59.775,30.017C2575.453,791.168,2583.667,868.082,2602.778,869.577z"/>
						<path style="fill:#2C3A64;" d="M2605.498,744.758c0,0,20.117,53.694,50.99,61.633c30.873,7.939,44.264-0.333,44.264-0.333
							s-11.298-27.62-16.211-60.459C2684.54,745.599,2620.672,719.202,2605.498,744.758z"/>
						<path style="fill:#2C3A64;" d="M2610.484,749.117c0,0-15.023,11.987-18.687,23.642c-3.663,11.654-5.31,35.646-12.303,34.83
							c0,0-15.156-36.496,1.877-57.141C2599.432,728.557,2610.484,749.117,2610.484,749.117z"/>
						<path style="fill:#A8D29F;" d="M2774.096,1113.973c7.246-30.388-17.406-89.354-43.139-138.171
							c-23.35-44.245-47.585-80.139-49.762-78.848c-61.581,36.55-67.145,6.163-67.145,6.163l-0.003,0.005
							c-0.024,0.003-55.941,7.424-71.776,34.687c-19.645,33.828-40.873,128.355-61.955,146.248
							c3.238,9.907,1.849,15.187-1.583,27.462c-0.737,2.634-1.547,5.134-2.44,7.503c-3.178,8.638-7.153,15.645-10.584,21.735
							c10.717,6.512,31.412,18.896,46.659,9.991c23.245-13.604,41.38-55.019,51.589-71.51c0.038-0.064,0.075-0.123,0.114-0.186
							c22.186,125.584-7.981,154.184,7.29,167.426c16.127,13.984,39.165-6.658,89.849,15.309
							c33.244,14.422,79.378,35.271,110.434,38.9c16.288,1.911,28.44-0.921,32.403-11.922
							C2815.565,1256.797,2760.273,1171.902,2774.096,1113.973z"/>
						<path style="fill:#FFFFFF;" d="M2619.112,841.833c0,0-1.369,5.814-15.833,4.917c0,0-12.144-0.75-11.772-7.141
							C2591.506,839.61,2603.281,835.064,2619.112,841.833z"/>
						<path style="fill:#82B378;" d="M2804.046,1288.763c-3.963,11.001-16.115,13.835-32.403,11.922
							c-21.495-9.365-114.35-45.339-113.313-69.713c1.543-36.089,17.854-37.241,6.335-81.786
							c-9.25-35.766,76.548-102.27,90.233-116.727c25.734,48.818,26.444,51.126,19.198,81.513
							C2760.273,1171.902,2815.565,1256.797,2804.046,1288.763z"/>
						<path style="fill:#A8D29F;" d="M2814.542,1158.601c-16.468-23.124-33.624-35.351-44.908-41.501
							c2.598-6.693-69.264-94.793-69.264-108.445c0-13.822-19.174-111.707-19.174-111.707s59.877,3.697,80.609,32.609
							C2787.733,965.716,2841.581,1104.874,2814.542,1158.601z"/>
						<path style="fill:#FFB27D;" d="M2769.635,1117.1l-119.656,31.222l11.231,20.158c0,0,145.617-1.016,153.333-9.88
							C2822.258,1149.737,2769.635,1117.1,2769.635,1117.1z"/>
						<path style="fill:#82B378;" d="M2563.957,1079.236c-10.209,16.492-28.344,57.906-51.589,71.51
							c-15.247,8.905-35.943-3.479-46.659-9.991c3.431-6.09,7.406-13.097,10.584-21.735c8.553,1.957,18.992,4.457,25.722,6.488
							C2515.11,1129.472,2563.957,1079.236,2563.957,1079.236z"/>
						<path style="fill:#FFB27D;" d="M2649.979,1148.322c0,0-37.576-10.633-46.526-8.146c-8.95,2.485-39.616,22.791-35.305,28.305
							c4.312,5.515,31.327-3.302,43.758-1.632c12.431,1.671,22.045,7.803,30.995,6.477c8.95-1.326,18.309-4.844,18.309-4.844
							L2649.979,1148.322z"/>
						<path style="fill:#FFB27D;" d="M2649.979,1148.322c0,0-18.384-9.445-23.614-14.821c-0.659-0.678-1.776-0.535-2.282,0.263
							c-1.402,2.21-2.713,6.478,3.735,10.721C2637.099,1150.593,2649.979,1148.322,2649.979,1148.322z"/>
					</g>
				</g>
				<g>
					<path style="fill:#ED7D2B;" d="M2476.327,1201.189h175.309l0,0c0-7.718-6.257-13.974-13.974-13.974h-161.334V1201.189z"/>
					<polygon style="fill:#ED7D2B;" points="2476.83,1010.262 2205.791,1010.262 2270.802,1201.189 2543.6,1201.189 					"/>
					<polygon style="fill:#F99746;" points="2201.795,1010.262 2266.815,1201.183 2539.606,1201.183 2472.839,1010.262 					"/>
					<path style="fill:#F9DDBF;" d="M2347.928,1103.959c1.684,7.295,8.963,13.209,16.258,13.209s11.844-5.914,10.159-13.209
						c-1.685-7.294-8.963-13.208-16.259-13.208C2350.792,1090.751,2346.244,1096.665,2347.928,1103.959z"/>
					<path style="fill:#ED893E;" d="M2201.795,1010.262l65.021,190.921h180.657c-119.671-40.846-151.527-165.389-156.872-190.921
						H2201.795z"/>
				</g>
			</g>
			<g>
				<g>
					<path style="fill:#95C0F4;" d="M2988.663,1785.373c-3.428,0-6.359-2.408-6.946-5.696l-34.042-192.953l-48.966-277.506
						l-13.692-77.599l34.876-0.996l6.051,45.047l42.488,316.566l25.188,187.645
						C2994.008,1782.791,2991.684,1785.373,2988.663,1785.373z"/>
				</g>
				<path style="fill:#78ACEA;" d="M2925.945,1275.669c-22.595,9.971-27.235,33.548-27.235,33.548l-13.692-77.599l34.876-0.996
					L2925.945,1275.669z"/>
			</g>
			<g>
				<g>
					<path style="fill:#95C0F4;" d="M2121.197,1785.373c3.428,0,6.359-2.408,6.945-5.696l34.042-192.953l48.966-277.506
						l13.692-77.599l-34.876-0.996l-6.051,45.047l-42.487,316.566l-25.188,187.645
						C2115.851,1782.791,2118.176,1785.373,2121.197,1785.373z"/>
				</g>
				<path style="fill:#78ACEA;" d="M2183.914,1275.669c22.595,9.971,27.235,33.548,27.235,33.548l13.692-77.599l-34.876-0.996
					L2183.914,1275.669z"/>
			</g>
			<path style="fill:#78ACEA;" d="M3011.933,1262.082h-893.114c-11.7,0-21.273-9.573-21.273-21.273v-18.387
				c0-11.7,9.573-21.273,21.273-21.273h893.113c11.7,0,21.273,9.573,21.273,21.273v18.388
				C3033.205,1252.51,3023.632,1262.082,3011.933,1262.082z"/>
		</g>
	</g>
</g>
</svg>
